<?xml version="1.0" encoding="UTF-8" standalone="no"?>
<!-- Created with Inkscape (http://www.inkscape.org/) -->

<svg
   xmlns:dc="http://purl.org/dc/elements/1.1/"
   xmlns:cc="http://creativecommons.org/ns#"
   xmlns:rdf="http://www.w3.org/1999/02/22-rdf-syntax-ns#"
   xmlns:svg="http://www.w3.org/2000/svg"
   xmlns="http://www.w3.org/2000/svg"
   xmlns:sodipodi="http://sodipodi.sourceforge.net/DTD/sodipodi-0.dtd"
   xmlns:inkscape="http://www.inkscape.org/namespaces/inkscape"
   width="720"
   height="720"
   viewBox="0 0 190.5 190.50001"
   version="1.1"
   id="svg3783"
   inkscape:version="0.92.4 (5da689c313, 2019-01-14)"
   sodipodi:docname="RTM_logo.svg">
  <defs
     id="defs3777" />
  <sodipodi:namedview
     id="base"
     pagecolor="#ffffff"
     bordercolor="#666666"
     borderopacity="1.0"
     inkscape:pageopacity="0.0"
     inkscape:pageshadow="2"
     inkscape:zoom="0.7"
     inkscape:cx="316.0949"
     inkscape:cy="315.1055"
     inkscape:document-units="mm"
     inkscape:current-layer="layer4"
     showgrid="false"
     units="px"
     inkscape:window-width="1360"
     inkscape:window-height="705"
     inkscape:window-x="-8"
     inkscape:window-y="-8"
     inkscape:window-maximized="1"
     showguides="false"
     inkscape:pagecheckerboard="true" />
  <metadata
     id="metadata3780">
    <rdf:RDF>
      <cc:Work
         rdf:about="">
        <dc:format>image/svg+xml</dc:format>
        <dc:type
           rdf:resource="http://purl.org/dc/dcmitype/StillImage" />
        <dc:title></dc:title>
      </cc:Work>
    </rdf:RDF>
  </metadata>
  <g
     inkscape:label="Logo-Atrás"
     inkscape:groupmode="layer"
     id="layer1"
     transform="translate(0,-106.49998)"
     style="display:inline">
    <circle
       id="path3785"
       cx="95.25"
       cy="201.74998"
       style="fill:#fb1704;fill-opacity:1;stroke:none;stroke-width:0.266;stroke-miterlimit:4;stroke-dasharray:none;stroke-opacity:1"
       r="95.25" />
  </g>
  <g
     inkscape:groupmode="layer"
     id="layer4"
     inkscape:label="Logo-Medio"
     style="display:inline">
    <path
       style="display:inline;fill:#fbffff;fill-opacity:1;stroke:none;stroke-width:1.0053544;stroke-miterlimit:4;stroke-dasharray:none;stroke-opacity:1"
       d="M 360,0 C 161.17749,0 0,161.17749 0,360 c 0,168.04281 115.13881,309.18935 270.82812,348.86523 9.78579,-0.22473 20.22837,-0.45906 27.58399,-0.64062 58.28937,-1.43875 95.54687,-12.46875 95.54687,-12.46875 l 14.27344,-3.98242 C 392.2707,694.24582 376.15135,695.56304 360,695.71484 174.58968,695.71516 24.284841,545.41032 24.285156,360 24.284839,174.58968 174.58968,24.284839 360,24.285156 497.99822,24.311689 621.92334,108.78253 672.39258,237.2207 675.4696,184.89933 664.00297,178.87006 642.84375,137.27148 576.92048,53.670239 474.729,0 360,0 Z m 293.73828,535.83622 c -5.0682,7.91916 -20.46684,18.47906 -26.18164,25.94503 0.10198,0.48458 0.17148,1.02157 0.19727,1.63477 1.30684,31.07614 -22.16797,59.35742 -22.16797,59.35742 l -0.44336,0.85156 c 7.12891,-6.63223 13.99242,-13.54517 20.56445,-20.73047 0,0 11.02486,-9.89254 20.36468,-23.9654 12.66832,-19.08814 15.174,-25.10449 7.66657,-43.09291 z"
       transform="scale(0.26458333)"
       id="path3785-2"
       inkscape:connector-curvature="0"
       sodipodi:nodetypes="sscscccccccsccccccsc" />
  </g>
  <g
     inkscape:groupmode="layer"
     id="layer3"
     inkscape:label="Logo-Frente"
     style="display:inline"
     transform="translate(0,-4.7412109e-6)">
    <path
       style="display:inline;fill:#ffffff;fill-opacity:1;stroke:none;stroke-width:0.23551238px;stroke-linecap:butt;stroke-linejoin:miter;stroke-opacity:1"
       d="M 98.167426,2.7461386 C 90.252595,2.8608384 77.781857,3.929371 67.822115,6.7478088 52.008189,11.222881 43.608689,17.38107 33.732235,25.78964 22.590461,36.725298 5.8704901,53.419555 2.4894752,94.771401 3.4914346,117.92989 8.4357236,137.86644 25.077465,156.31656 c 13.14934,13.92188 31.539429,27.41394 53.877628,31.06802 29.629687,-2.73677 41.369147,-5.27016 52.077447,-24.04335 12.62069,-24.76707 1.9246,-68.670345 1.9246,-68.670345 0,0 3.24122,2.676813 7.59417,5.911065 3.93014,2.9201 8.29862,9.2073 8.29862,9.2073 0,0 0.8605,-5.63165 3.97119,-12.613237 2.62991,-5.902539 4.60855,-10.150316 4.60855,-10.150316 0,0 4.04404,5.824717 6.4487,18.322913 2.87951,14.96619 3.47848,25.24987 2.36604,40.13488 -1.0232,13.69103 -5.91954,19.7766 -6.01646,19.29199 0,0 7.44323,-6.38885 13.02542,-14.74838 3.63141,-5.43817 6.15129,-22.13522 6.15129,-22.13522 0,0 1.23534,-4.55235 -0.0201,-19.08627 -1.22622,-14.19578 -3.24745,-26.918524 -8.05704,-40.48885 -3.79554,-10.709153 -11.75949,-23.787179 -11.75949,-23.787179 l -14.14635,2.45109 -0.95837,10.133451 c -0.93118,6.797551 -3.58554,10.824663 -3.58554,10.824663 0,0 -4.35558,-2.829293 -7.75094,-8.686292 l -4.96692,-9.032153 -17.65895,2.783512 c 0,0 11.99692,77.159938 6.58188,98.852738 -2.34036,9.37558 -9.63969,15.57836 -17.88016,20.62548 -6.025338,3.6904 -18.327923,3.99767 -25.390475,3.78776 C 61.041751,174.59032 49.440875,167.71456 39.556034,158.69472 28.490447,147.89824 20.624054,131.70364 16.303291,115.66468 12.916509,97.733977 14.539238,74.357521 22.985161,58.735949 28.1754,50.381447 30.003993,46.41655 39.010418,39.061416 c 8.495474,-6.937864 11.99856,-7.562522 22.728685,-9.724919 17.07647,-2.630802 25.722209,38.78906 27.128073,63.910332 2.45995,43.956701 3.327561,47.353841 -0.114896,47.398041 -4.821248,0.0619 -1.70153,-20.45374 -9.083757,-31.42673 C 73.94652,100.71296 57.69932,90.376912 57.69932,90.376912 c 0,0 25.727808,-2.896878 22.124749,-22.600687 C 77.5648,55.421143 65.303424,51.247561 55.61366,51.235631 c -1.002393,-7.94e-4 -1.976985,0.04221 -2.910417,0.125574 -15.241606,1.361641 -22.838915,7.374744 -22.838915,7.374744 0,0 5.903251,25.082357 7.613488,44.368871 2.145284,24.19259 2.228805,45.02103 2.228805,45.02103 0,0 4.920271,-1.18918 9.650056,-1.9911 3.086139,-0.52324 9.382373,-0.38757 9.382373,-0.38757 0,0 -4.25169,-9.85587 -5.322157,-23.72878 -1.032269,-13.37796 -1.18959,-19.03192 -1.18959,-19.03192 13.280503,4.21319 17.376497,24.4408 18.192689,41.91321 0,0 0.772763,9.08718 4.01474,12.85968 4.653232,5.41469 11.211975,5.29978 15.368055,5.21208 5.237549,-0.11052 12.997343,-2.5565 16.169563,-6.94944 3.76928,-5.21977 3.87521,-14.96705 3.87521,-14.96705 0.79237,-28.01775 -20.298759,-101.521902 0.40481,-121.469994 22.30753,-0.43499 33.51114,4.179594 47.30671,14.699983 15.21569,11.603354 18.03692,22.84748 18.03692,22.84748 2.98057,-1.018559 -1.11357,-8.597401 -2.82123,-11.244126 C 162.42803,29.851801 152.343,18.746491 130.91001,9.7097876 118.77559,4.8469773 107.87941,2.605395 98.167426,2.7461386 Z M 55.551647,63.873621 c 14.96804,-0.15878 12.037036,15.956565 -6.417178,16.749365 0,0 -0.593339,-4.097559 -1.189593,-7.969541 -0.737272,-4.787709 -1.308447,-7.255885 -1.308447,-7.255885 3.418285,-1.035982 6.465904,-1.49796 8.915218,-1.523939 z"
       id="path4592"
       inkscape:connector-curvature="0"
       sodipodi:nodetypes="ssccccccscccsscscsscccccccssccccscssccscccscccsccsssccscscsccscc" />
  </g>
</svg>
