<?xml version="1.0" encoding="UTF-8" standalone="no"?>
<!-- Created with Inkscape (http://www.inkscape.org/) -->

<svg
   xmlns:osb="http://www.openswatchbook.org/uri/2009/osb"
   xmlns:dc="http://purl.org/dc/elements/1.1/"
   xmlns:cc="http://creativecommons.org/ns#"
   xmlns:rdf="http://www.w3.org/1999/02/22-rdf-syntax-ns#"
   xmlns:svg="http://www.w3.org/2000/svg"
   xmlns="http://www.w3.org/2000/svg"
   xmlns:xlink="http://www.w3.org/1999/xlink"
   xmlns:sodipodi="http://sodipodi.sourceforge.net/DTD/sodipodi-0.dtd"
   xmlns:inkscape="http://www.inkscape.org/namespaces/inkscape"
   width="720"
   height="720"
   viewBox="0 0 190.5 190.50001"
   version="1.1"
   id="svg3783"
   inkscape:version="0.92.4 (5da689c313, 2019-01-14)"
   sodipodi:docname="RTM_logo.svg"
   enable-background="new"
   inkscape:export-filename="E:\ALU\ROCKTHEMARK\WEB\RockTheMark_Front\img\RTM_logo.png"
   inkscape:export-xdpi="96"
   inkscape:export-ydpi="96">
  <defs
     id="defs3777">
    <linearGradient
       id="linearGradient3180"
       osb:paint="solid">
      <stop
         style="stop-color:#b53f3f;stop-opacity:0.41568628;"
         offset="0"
         id="stop3178" />
    </linearGradient>
    <linearGradient
       id="linearGradient3074"
       osb:paint="solid">
      <stop
         style="stop-color:#000000;stop-opacity:1;"
         offset="0"
         id="stop3072" />
    </linearGradient>
    <linearGradient
       inkscape:collect="always"
       id="linearGradient3066"
       osb:paint="gradient">
      <stop
         style="stop-color:#ffffff;stop-opacity:1;"
         offset="0"
         id="stop3062" />
      <stop
         style="stop-color:#ffffff;stop-opacity:0;"
         offset="1"
         id="stop3064" />
    </linearGradient>
    <linearGradient
       inkscape:collect="always"
       id="linearGradient3036"
       osb:paint="gradient">
      <stop
         style="stop-color:#ffffff;stop-opacity:1;"
         offset="0"
         id="stop3032" />
      <stop
         style="stop-color:#ffffff;stop-opacity:0;"
         offset="1"
         id="stop3034" />
    </linearGradient>
    <linearGradient
       id="linearGradient2952"
       osb:paint="solid">
      <stop
         style="stop-color:#000000;stop-opacity:0.74901962;"
         offset="0"
         id="stop2950" />
    </linearGradient>
    <linearGradient
       id="linearGradient2832"
       osb:paint="solid">
      <stop
         style="stop-color:#ffffff;stop-opacity:0.81176472;"
         offset="0"
         id="stop2830" />
    </linearGradient>
    <linearGradient
       inkscape:collect="always"
       xlink:href="#linearGradient2832"
       id="linearGradient3070"
       x1="-35.1618"
       y1="357.94116"
       x2="714.58899"
       y2="357.94116"
       gradientUnits="userSpaceOnUse" />
    <linearGradient
       inkscape:collect="always"
       xlink:href="#linearGradient2952"
       id="linearGradient3076"
       x1="-35.1618"
       y1="357.94116"
       x2="714.58899"
       y2="357.94116"
       gradientUnits="userSpaceOnUse" />
    <linearGradient
       inkscape:collect="always"
       xlink:href="#linearGradient3180"
       id="linearGradient3182"
       x1="0"
       y1="201.74998"
       x2="190.5"
       y2="201.74998"
       gradientUnits="userSpaceOnUse" />
    <filter
       inkscape:collect="always"
       style="color-interpolation-filters:sRGB"
       id="filter3192"
       x="-0.012"
       width="1.024"
       y="-0.012"
       height="1.024">
      <feGaussianBlur
         inkscape:collect="always"
         stdDeviation="0.9525"
         id="feGaussianBlur3194" />
    </filter>
    <filter
       inkscape:collect="always"
       style="color-interpolation-filters:sRGB"
       id="filter3196"
       x="-0.018482901"
       width="1.0369658"
       y="-0.01754169"
       height="1.0350834">
      <feGaussianBlur
         inkscape:collect="always"
         stdDeviation="5.2324108"
         id="feGaussianBlur3198" />
    </filter>
    <filter
       inkscape:collect="always"
       style="color-interpolation-filters:sRGB"
       id="filter3272">
      <feBlend
         inkscape:collect="always"
         mode="lighten"
         in2="BackgroundImage"
         id="feBlend3274" />
    </filter>
  </defs>
  <sodipodi:namedview
     id="base"
     pagecolor="#ffffff"
     bordercolor="#666666"
     borderopacity="1.0"
     inkscape:pageopacity="0.0"
     inkscape:pageshadow="2"
     inkscape:zoom="0.35"
     inkscape:cx="-289.11707"
     inkscape:cy="426.6696"
     inkscape:document-units="mm"
     inkscape:current-layer="g838"
     showgrid="false"
     units="px"
     inkscape:window-width="1360"
     inkscape:window-height="705"
     inkscape:window-x="-8"
     inkscape:window-y="-8"
     inkscape:window-maximized="1"
     showguides="false"
     inkscape:pagecheckerboard="true" />
  <metadata
     id="metadata3780">
    <rdf:RDF>
      <cc:Work
         rdf:about="">
        <dc:format>image/svg+xml</dc:format>
        <dc:type
           rdf:resource="http://purl.org/dc/dcmitype/StillImage" />
        <dc:title />
      </cc:Work>
    </rdf:RDF>
  </metadata>
  <g
     inkscape:label="Logo-Atrás"
     inkscape:groupmode="layer"
     id="layer1"
     transform="translate(0,-106.49998)"
     style="display:inline">
    <circle
       id="path3785"
       cx="95.25"
       cy="201.74998"
       style="fill:#fb1704;fill-opacity:1;stroke:url(#linearGradient3182);stroke-width:0.266;stroke-miterlimit:4;stroke-dasharray:none;stroke-opacity:1;filter:url(#filter3192)"
       r="95.25" />
  </g>
  <g
     style="display:inline"
     inkscape:label="Logo-Frente copia"
     id="g838"
     inkscape:groupmode="layer">
    <path
       inkscape:connector-curvature="0"
       id="path836"
       transform="scale(0.26458333)"
       d="M 360,0 C 161.17749,0 0,161.17749 0,360 c 0,168.04281 115.13882,309.18935 270.82812,348.86523 0.21896,-0.005 0.39763,-0.009 0.61719,-0.0137 8.14508,2.21434 16.45881,4.04506 24.94727,5.4336 205.93744,20.11714 294.87995,-151.21029 213.33789,-434.22657 23.47669,11.36067 37.47815,24.98078 52.99609,44.51368 2.19421,-24.91632 1.88792,-40.08668 20.23242,-63.89844 0,0 27.33535,90.25686 36.42383,137.49414 10.88319,56.56513 13.14786,95.4331 8.94336,151.69141 -2.29484,30.7063 -9.73127,51.21246 -15.48633,62.49218 -4.00738,6.50371 -7.2539,10.42188 -7.2539,10.42188 l -0.44336,0.85156 c 3.85907,-3.59021 7.63263,-7.27004 11.33203,-11.02344 3.30276,-3.24608 7.15786,-7.18552 11.31445,-11.68554 3.32783,-3.2519 10.15087,-10.31863 16.58203,-19.49414 3.56364,-4.57404 7.09556,-9.37425 10.44532,-14.39063 27.07022,-52.04394 26.12009,-119.96661 23.17187,-155.79687 -10.08499,-95.41143 -41.841,-198.70668 -87.01758,-269.19727 -13.94128,-0.50365 -28.19362,4.15661 -44.89648,10.69141 0.50543,33.99422 -4.27469,38.48899 -12.03516,66.94726 -21.66965,-22.3713 -33.33618,-31.81329 -44.11328,-56.72266 -13.13197,-2.52538 -39.74343,2.02153 -56.91601,12.12305 22.10725,90.38307 152.94066,432.38649 -91.4043,481.03906 C 278.1869,677.04161 186.86394,633.88175 149.50391,599.79102 107.68122,558.98542 77.949583,497.77789 61.619141,437.1582 48.818705,369.38862 54.951448,281.0363 86.873047,221.99414 123.91183,167.75396 142.73657,151.77556 201.01953,129.06055 c 97.87602,-30.146241 137.87357,74.0259 155.05859,156.69922 43.06221,207.16271 21.32536,223.68991 -7.5039,228.63867 -27.96425,4.80026 -36.09277,-55.67456 -53.89258,-100.17774 -22.33767,-53.92965 -54.38025,-69.6066 -76.60547,-72.63867 12.13617,-0.70882 109.36005,-19.03086 95.74219,-93.50195 -8.53895,-46.69638 -67.00227,-54.38851 -103.625,-54.4336 -3.78857,-0.003 -7.47207,0.15954 -11,0.47461 -57.60607,5.14636 -86.32031,27.87305 -86.32031,27.87305 0,0 22.3115,94.79945 28.77539,167.69336 8.10816,91.43656 8.42383,170.1582 8.42383,170.1582 0,0 18.5963,-4.49451 36.47265,-7.52539 11.66415,-1.9776 35.46094,-1.46484 35.46094,-1.46484 0,0 -16.06938,-37.25055 -20.11524,-89.68359 -3.90148,-50.56237 -4.49609,-71.93165 -4.49609,-71.93165 50.19403,15.92387 61.63395,95.40583 69.76953,141.24024 11.20734,42.48567 50.83304,72.72887 104.57227,57.18945 95.10685,-25.89914 79.31864,-95.371 30.54883,-316.41797 C 375.96221,131.48664 382.8998,117.091 432.86523,84.123047 c 42.63285,-16.054824 95.89263,-12.325793 142.9961,18.830073 41.99309,35.26202 75.5898,80.97411 96.53125,134.26758 3.07702,-52.32137 -8.38961,-58.35064 -29.54883,-99.94922 C 576.92048,53.670244 474.729,0 360,0 Z M 225.11133,239.39258 c 56.57212,-0.60012 44.7794,55.55205 -40.1211,64.60937 0,0 -1.52825,-11.2 -4.49609,-28.6914 -3.06272,-18.05059 -6.37305,-28.13867 -6.37305,-28.13867 12.91951,-3.91553 41.73299,-7.68111 50.99024,-7.7793 z"
       style="display:inline;fill:#4ed4e2;fill-opacity:1;stroke:none;stroke-width:1.0053544;stroke-miterlimit:4;stroke-dasharray:none;stroke-opacity:1" />
  </g>
  <g
     inkscape:groupmode="layer"
     id="layer4"
     inkscape:label="Logo-Frente"
     style="display:inline;filter:url(#filter3272)">
    <path
       style="display:inline;opacity:0.99299999;fill:url(#linearGradient3070);fill-opacity:1;fill-rule:nonzero;stroke:url(#linearGradient3076);stroke-width:10;stroke-linejoin:round;stroke-miterlimit:4;stroke-dasharray:none;stroke-opacity:1;filter:url(#filter3196)"
       d="M 360,0 C 161.17749,0 0,161.17749 0,360 c 0,168.04281 115.13882,309.18935 270.82812,348.86523 0.21896,-0.005 0.39763,-0.009 0.61719,-0.0137 8.14508,2.21434 16.45881,4.04506 24.94727,5.4336 205.93744,20.11714 294.87995,-151.21029 213.33789,-434.22657 23.47669,11.36067 37.47815,24.98078 52.99609,44.51368 2.19421,-24.91632 1.88792,-40.08668 20.23242,-63.89844 0,0 27.33535,90.25686 36.42383,137.49414 10.88319,56.56513 13.14786,95.4331 8.94336,151.69141 -2.29484,30.7063 -9.73127,51.21246 -15.48633,62.49218 -4.00738,6.50371 -7.2539,10.42188 -7.2539,10.42188 l -0.44336,0.85156 c 3.85907,-3.59021 7.63263,-7.27004 11.33203,-11.02344 3.30276,-3.24608 7.15786,-7.18552 11.31445,-11.68554 3.32783,-3.2519 10.15087,-10.31863 16.58203,-19.49414 3.56364,-4.57404 7.09556,-9.37425 10.44532,-14.39063 27.07022,-52.04394 26.12009,-119.96661 23.17187,-155.79687 -10.08499,-95.41143 -41.841,-198.70668 -87.01758,-269.19727 -13.94128,-0.50365 -28.19362,4.15661 -44.89648,10.69141 0.50543,33.99422 -4.27469,38.48899 -12.03516,66.94726 -21.66965,-22.3713 -33.33618,-31.81329 -44.11328,-56.72266 -13.13197,-2.52538 -39.74343,2.02153 -56.91601,12.12305 22.10725,90.38307 152.94066,432.38649 -91.4043,481.03906 C 278.1869,677.04161 186.86394,633.88175 149.50391,599.79102 107.68122,558.98542 77.949583,497.77789 61.619141,437.1582 48.818705,369.38862 54.951448,281.0363 86.873047,221.99414 123.91183,167.75396 142.73657,151.77556 201.01953,129.06055 c 97.87602,-30.146241 137.87357,74.0259 155.05859,156.69922 43.06221,207.16271 21.32536,223.68991 -7.5039,228.63867 -27.96425,4.80026 -36.09277,-55.67456 -53.89258,-100.17774 -22.33767,-53.92965 -54.38025,-69.6066 -76.60547,-72.63867 12.13617,-0.70882 109.36005,-19.03086 95.74219,-93.50195 -8.53895,-46.69638 -67.00227,-54.38851 -103.625,-54.4336 -3.78857,-0.003 -7.47207,0.15954 -11,0.47461 -57.60607,5.14636 -86.32031,27.87305 -86.32031,27.87305 0,0 22.3115,94.79945 28.77539,167.69336 8.10816,91.43656 8.42383,170.1582 8.42383,170.1582 0,0 18.5963,-4.49451 36.47265,-7.52539 11.66415,-1.9776 35.46094,-1.46484 35.46094,-1.46484 0,0 -16.06938,-37.25055 -20.11524,-89.68359 -3.90148,-50.56237 -4.49609,-71.93165 -4.49609,-71.93165 50.19403,15.92387 61.63395,95.40583 69.76953,141.24024 11.20734,42.48567 50.83304,72.72887 104.57227,57.18945 95.10685,-25.89914 79.31864,-95.371 30.54883,-316.41797 C 375.96221,131.48664 382.8998,117.091 432.86523,84.123047 c 42.63285,-16.054824 95.89263,-12.325793 142.9961,18.830073 41.99309,35.26202 75.5898,80.97411 96.53125,134.26758 3.07702,-52.32137 -8.38961,-58.35064 -29.54883,-99.94922 C 576.92048,53.670244 474.729,0 360,0 Z M 225.11133,239.39258 c 56.57212,-0.60012 44.7794,55.55205 -40.1211,64.60937 0,0 -1.52825,-11.2 -4.49609,-28.6914 -3.06272,-18.05059 -6.37305,-28.13867 -6.37305,-28.13867 12.91951,-3.91553 41.73299,-7.68111 50.99024,-7.7793 z"
       transform="scale(0.26458333)"
       id="path3785-2"
       inkscape:connector-curvature="0" />
  </g>
</svg>
